# xmcd CD database file generated by Grip 3.0.1
# 
# Track frame offsets:
#       150
#       26167
#       44842
#       61832
#       103455
#       137807
#       156077
#       180195
#       220737
#       269370
# 
# Disc length: 4339 seconds
# 
# Revision: 4
# Processed by: cddbd v1.4PL0 Copyright (c) Steve Scherf et al.
# Submitted via: Grip 3.0.1
# 
DISCID=9210f10a
DTITLE=Bill Perry - High Octane
DYEAR=1998
DGENRE=Blues
TTITLE0=Lost In The Blues
TTITLE1=Dust My Broom
TTITLE2=The Other Night
TTITLE3=All Along The Watchtower
TTITLE4=How Blue Can You Get
TTITLE5=Boogie Blues
TTITLE6=About Me (Why I Got The Blues)
TTITLE7=Johnny B. Goode
TTITLE8=Fade To Blue
TTITLE9=Little Wing
EXTD=
EXTT0=
EXTT1=
EXTT2=
EXTT3=
EXTT4=
EXTT5=
EXTT6=
EXTT7=
EXTT8=
EXTT9=
PLAYORDER=
